<svg width="124" height="44" viewBox="0 0 124 44" xmlns="http://www.w3.org/2000/svg">
  <defs>
    <linearGradient id="glow" x1="0%" y1="0%" x2="100%" y2="100%">
      <stop offset="0%" stop-color="#38BDF8" stop-opacity="0.9"/>
      <stop offset="50%" stop-color="#818CF8" stop-opacity="0.4"/>
      <stop offset="100%" stop-color="#2DD4BF" stop-opacity="0.9"/>
    </linearGradient>
    <radialGradient id="bgGlow" cx="50%" cy="50%" r="70%">
      <stop offset="0%" stop-color="#38BDF8" stop-opacity="0.15"/>
      <stop offset="100%" stop-color="#0d1117" stop-opacity="0"/>
    </radialGradient>
    <filter id="blur">
      <feGaussianBlur stdDeviation="2" result="b"/>
      <feComposite in="SourceGraphic" in2="b" operator="over"/>
    </filter>
    <style>
      @keyframes breathe {
        0%, 100% { opacity: 0.4; }
        50% { opacity: 1; }
      }
      .b { animation: breathe 3.5s ease-in-out infinite; }
    </style>
  </defs>
  
  <rect x="2" y="2" width="120" height="40" rx="12" fill="#0d1117" fill-opacity="0.9"/>
  <rect x="2" y="2" width="120" height="40" rx="12" fill="url(#bgGlow)"/>
  
  <!-- Glowing border -->
  <rect x="2" y="2" width="120" height="40" rx="12" fill="none" stroke="url(#glow)" stroke-width="1.5" filter="url(#blur)" class="b"/>
  
  <g transform="translate(14, 10)">
    <path d="M20.447 20.452h-3.554v-5.569c0-1.328-.027-3.037-1.852-3.037-1.853 0-2.136 1.445-2.136 2.939v5.667H9.351V9h3.414v1.561h.046c.477-.9 1.637-1.85 3.37-1.85 3.601 0 4.267 2.37 4.267 5.455v6.286zM5.337 7.433c-1.144 0-2.063-.926-2.063-2.065 0-1.138.92-2.063 2.063-2.063 1.14 0 2.064.925 2.064 2.063 0 1.139-.925 2.065-2.064 2.065zm1.782 13.019H3.555V9h3.564v11.452zM22.225 0H1.771C.792 0 0 .774 0 1.729v20.542C0 23.227.792 24 1.771 24h20.451C23.2 24 24 23.227 24 22.271V1.729C24 .774 23.2 0 22.222 0h.003z" fill="#E2E8F0" transform="scale(0.9)"/>
  </g>
  
  <text x="44" y="27" font-family="'JetBrains Mono', monospace" font-size="12" font-weight="600" fill="#E2E8F0" letter-spacing="1">LINKEDIN</text>
</svg>