<svg width="114" height="44" viewBox="0 0 114 44" xmlns="http://www.w3.org/2000/svg">
  <defs>
    <linearGradient id="glow" x1="0%" y1="0%" x2="100%" y2="100%">
      <stop offset="0%" stop-color="#38BDF8" stop-opacity="0.9"/>
      <stop offset="50%" stop-color="#818CF8" stop-opacity="0.4"/>
      <stop offset="100%" stop-color="#2DD4BF" stop-opacity="0.9"/>
    </linearGradient>
    <radialGradient id="bgGlow" cx="50%" cy="50%" r="70%">
      <stop offset="0%" stop-color="#38BDF8" stop-opacity="0.15"/>
      <stop offset="100%" stop-color="#0d1117" stop-opacity="0"/>
    </radialGradient>
    <filter id="blur">
      <feGaussianBlur stdDeviation="2" result="b"/>
      <feComposite in="SourceGraphic" in2="b" operator="over"/>
    </filter>
    <style>
      @keyframes breathe {
        0%, 100% { opacity: 0.4; }
        50% { opacity: 1; }
      }
      .b { animation: breathe 3.5s ease-in-out infinite; }
    </style>
  </defs>
  
  <rect x="2" y="2" width="110" height="40" rx="12" fill="#0d1117" fill-opacity="0.9"/>
  <rect x="2" y="2" width="110" height="40" rx="12" fill="url(#bgGlow)"/>
  
  <!-- Glowing border -->
  <rect x="2" y="2" width="110" height="40" rx="12" fill="none" stroke="url(#glow)" stroke-width="1.5" filter="url(#blur)" class="b"/>
  
  <g transform="translate(14, 10)">
    <path d="M20.317 4.3698a19.7913 19.7913 0 00-4.8851-1.5152.0741.0741 0 00-.0785.0371c-.211.3753-.4447.8648-.6083 1.2495-1.8447-.2762-3.68-.2762-5.4868 0-.1636-.3933-.4058-.8742-.6177-1.2495a.077.077 0 00-.0785-.037 19.7363 19.7363 0 00-4.8852 1.515.0699.0699 0 00-.0321.0277C.5334 9.0458-.319 13.5799.0992 18.0578a.0824.0824 0 00.0312.0561c2.0528 1.5076 4.0413 2.4228 5.9929 3.0294a.0777.0777 0 00.0842-.0276c.4616-.6304.8731-1.2952 1.226-1.9942a.076.076 0 00-.0416-.1057c-.6528-.2476-1.2743-.5495-1.8722-.8923a.077.077 0 01-.0076-.1277c.1258-.0943.2517-.1923.3718-.2914a.0743.0743 0 01.0776-.0105c3.9278 1.7933 8.18 1.7933 12.0614 0a.0739.0739 0 01.0785.0095c.1202.099.246.1981.3728.2924a.077.077 0 01-.0066.1276 12.2986 12.2986 0 01-1.873.8914.0766.0766 0 00-.0407.1067c.3604.698.7719 1.3628 1.225 1.9932a.076.076 0 00.0842.0286c1.961-.6067 3.9495-1.5219 6.0023-3.0294a.077.077 0 00.0313-.0552c.5004-5.177-.8382-9.6739-3.5485-13.6604a.061.061 0 00-.0312-.0286zM8.02 15.3312c-1.1825 0-2.1569-1.0857-2.1569-2.419 0-1.3332.9555-2.4189 2.157-2.4189 1.2108 0 2.1757 1.0952 2.1568 2.419 0 1.3332-.9555 2.4189-2.1569 2.4189zm7.9748 0c-1.1825 0-2.1569-1.0857-2.1569-2.419 0-1.3332.9554-2.4189 2.1569-2.4189 1.2108 0 2.1757 1.0952 2.1568 2.419 0 1.3332-.946 2.4189-2.1568 2.4189Z" fill="#E2E8F0" transform="scale(0.9)"/>
  </g>
  
  <text x="44" y="27" font-family="'JetBrains Mono', monospace" font-size="12" font-weight="600" fill="#E2E8F0" letter-spacing="1">DISCORD</text>
</svg>