<svg width="204" height="44" viewBox="0 0 204 44" xmlns="http://www.w3.org/2000/svg">
  <defs>
    <linearGradient id="glow" x1="0%" y1="0%" x2="100%" y2="100%">
      <stop offset="0%" stop-color="#38BDF8" stop-opacity="0.9"/>
      <stop offset="50%" stop-color="#818CF8" stop-opacity="0.4"/>
      <stop offset="100%" stop-color="#2DD4BF" stop-opacity="0.9"/>
    </linearGradient>
    <radialGradient id="bgGlow" cx="50%" cy="50%" r="70%">
      <stop offset="0%" stop-color="#38BDF8" stop-opacity="0.15"/>
      <stop offset="100%" stop-color="#0d1117" stop-opacity="0"/>
    </radialGradient>
    <filter id="blur">
      <feGaussianBlur stdDeviation="2" result="b"/>
      <feComposite in="SourceGraphic" in2="b" operator="over"/>
    </filter>
    <style>
      @keyframes breathe {
        0%, 100% { opacity: 0.4; }
        50% { opacity: 1; }
      }
      .b { animation: breathe 3.5s ease-in-out infinite; }
    </style>
  </defs>
  
  <rect x="2" y="2" width="200" height="40" rx="12" fill="#0d1117" fill-opacity="0.9"/>
  <rect x="2" y="2" width="200" height="40" rx="12" fill="url(#bgGlow)"/>
  
  <!-- Glowing border -->
  <rect x="2" y="2" width="200" height="40" rx="12" fill="none" stroke="url(#glow)" stroke-width="1.5" filter="url(#blur)" class="b"/>
  
  <g transform="translate(24, 10)">
    <path d="M22.675 0h-21.35c-.732 0-1.325.593-1.325 1.325v21.351c0 .731.593 1.324 1.325 1.324h11.495v-9.294h-3.128v-3.622h3.128v-2.671c0-3.1 1.893-4.788 4.659-4.788 1.325 0 2.463.099 2.795.143v3.24l-1.918.001c-1.504 0-1.795.715-1.795 1.763v2.312h3.587l-.467 3.622h-3.12v9.293h6.116c.73 0 1.323-.593 1.323-1.325v-21.35c0-.732-.593-1.325-1.325-1.325z" fill="#E2E8F0" transform="scale(0.9)"/>
  </g>
  
  <text x="60" y="27" font-family="'JetBrains Mono', monospace" font-size="12" font-weight="600" fill="#E2E8F0" letter-spacing="1">FACEBOOK</text>
</svg>