<svg width="520" height="110" viewBox="0 0 520 110" xmlns="http://www.w3.org/2000/svg">
  <defs>
    <linearGradient id="ob" x1="0%" y1="0%" x2="100%" y2="100%">
      <stop offset="0%"   stop-color="#38BDF8" stop-opacity="0.7"/>
      <stop offset="50%"  stop-color="#1E293B" stop-opacity="0.6"/>
      <stop offset="100%" stop-color="#818CF8" stop-opacity="0.6"/>
    </linearGradient>
    <linearGradient id="tg" x1="0%" y1="0%" x2="100%" y2="0%">
      <stop offset="0%"   stop-color="#94A3B8"/>
      <stop offset="100%" stop-color="#64748B"/>
    </linearGradient>
    <!-- Fade masks at strip edges -->
    <linearGradient id="fl" x1="0%" y1="0%" x2="100%" y2="0%">
      <stop offset="0%"   stop-color="#0d1117" stop-opacity="1"/>
      <stop offset="100%" stop-color="#0d1117" stop-opacity="0"/>
    </linearGradient>
    <linearGradient id="fr" x1="0%" y1="0%" x2="100%" y2="0%">
      <stop offset="0%"   stop-color="#0d1117" stop-opacity="0"/>
      <stop offset="100%" stop-color="#0d1117" stop-opacity="1"/>
    </linearGradient>

    <!-- Clip to visible strip area only -->
    <clipPath id="mc">
      <rect x="2" y="57" width="516" height="51"/>
    </clipPath>

    <style>
      /* One full set = 1870px. Animate by exactly that much for seamless loop. */
      @keyframes scroll {
        from { transform: translateX(0); }
        to   { transform: translateX(-1870px); }
      }
      @keyframes breathe { 0%,100%{opacity:.5} 50%{opacity:.9} }
      .tr { animation: scroll 32s linear infinite; }
      .bx { animation: breathe 4s ease-in-out infinite; }
    </style>
  </defs>

  <!-- Outer container -->
  <rect x="2" y="2" width="516" height="106" rx="14" fill="#0d1117" fill-opacity="0.85"/>
  <rect x="2" y="2" width="516" height="106" rx="14" fill="none" stroke="url(#ob)" stroke-width="1.5" class="bx"/>

  <!-- Header bar -->
  <rect x="2"  y="2"  width="516" height="52" rx="14" fill="#161b22" fill-opacity="0.95"/>
  <rect x="2"  y="40" width="516" height="14" fill="#161b22" fill-opacity="0.95"/>
  <line x1="2" y1="53" x2="518" y2="53" stroke="#334155" stroke-width="1" opacity="0.6"/>

  <!-- macOS dots -->
  <circle cx="24" cy="28" r="5" fill="#EF4444" opacity="0.8"/>
  <circle cx="42" cy="28" r="5" fill="#F59E0B" opacity="0.8"/>
  <circle cx="60" cy="28" r="5" fill="#10B981" opacity="0.8"/>

  <!-- Title -->
  <text x="260" y="33"
        font-family="'JetBrains Mono','Courier New',monospace"
        font-size="13" font-weight="700"
        fill="url(#tg)" text-anchor="middle" letter-spacing="4">TECH  STACK</text>

  <!-- ── Scrolling pill marquee ── -->
  <g clip-path="url(#mc)">
    <g class="tr">

      <!-- ═══ SET 1 ═══ (x starts at 10, pill_y=71, text_y=88, pill_h=26) -->
      <rect x="10"   y="71" width="32"  height="26" rx="6" fill="#334155" fill-opacity="0.45" stroke="#475569" stroke-width="0.7"/><text x="26"   y="88" font-family="'JetBrains Mono',monospace" font-size="11.5" fill="#E2E8F0" text-anchor="middle">C</text>
      <rect x="56"   y="71" width="46"  height="26" rx="6" fill="#334155" fill-opacity="0.45" stroke="#475569" stroke-width="0.7"/><text x="79"   y="88" font-family="'JetBrains Mono',monospace" font-size="11.5" fill="#E2E8F0" text-anchor="middle">C++</text>
      <rect x="116"  y="71" width="52"  height="26" rx="6" fill="#334155" fill-opacity="0.45" stroke="#475569" stroke-width="0.7"/><text x="142"  y="88" font-family="'JetBrains Mono',monospace" font-size="11.5" fill="#E2E8F0" text-anchor="middle">Java</text>
      <rect x="182"  y="71" width="52"  height="26" rx="6" fill="#334155" fill-opacity="0.45" stroke="#475569" stroke-width="0.7"/><text x="208"  y="88" font-family="'JetBrains Mono',monospace" font-size="11.5" fill="#E2E8F0" text-anchor="middle">Dart</text>
      <rect x="248"  y="71" width="46"  height="26" rx="6" fill="#334155" fill-opacity="0.45" stroke="#475569" stroke-width="0.7"/><text x="271"  y="88" font-family="'JetBrains Mono',monospace" font-size="11.5" fill="#E2E8F0" text-anchor="middle">Lua</text>
      <rect x="308"  y="71" width="52"  height="26" rx="6" fill="#334155" fill-opacity="0.45" stroke="#475569" stroke-width="0.7"/><text x="334"  y="88" font-family="'JetBrains Mono',monospace" font-size="11.5" fill="#E2E8F0" text-anchor="middle">Bash</text>
      <rect x="374"  y="71" width="102" height="26" rx="6" fill="#334155" fill-opacity="0.45" stroke="#475569" stroke-width="0.7"/><text x="425"  y="88" font-family="'JetBrains Mono',monospace" font-size="11.5" fill="#E2E8F0" text-anchor="middle">Spring Boot</text>
      <rect x="490"  y="71" width="60"  height="26" rx="6" fill="#334155" fill-opacity="0.45" stroke="#475569" stroke-width="0.7"/><text x="520"  y="88" font-family="'JetBrains Mono',monospace" font-size="11.5" fill="#E2E8F0" text-anchor="middle">MySQL</text>
      <rect x="564"  y="71" width="74"  height="26" rx="6" fill="#334155" fill-opacity="0.45" stroke="#475569" stroke-width="0.7"/><text x="601"  y="88" font-family="'JetBrains Mono',monospace" font-size="11.5" fill="#E2E8F0" text-anchor="middle">MongoDB</text>
      <rect x="652"  y="71" width="80"  height="26" rx="6" fill="#334155" fill-opacity="0.45" stroke="#475569" stroke-width="0.7"/><text x="692"  y="88" font-family="'JetBrains Mono',monospace" font-size="11.5" fill="#E2E8F0" text-anchor="middle">Firebase</text>
      <rect x="746"  y="71" width="74"  height="26" rx="6" fill="#334155" fill-opacity="0.45" stroke="#475569" stroke-width="0.7"/><text x="783"  y="88" font-family="'JetBrains Mono',monospace" font-size="11.5" fill="#E2E8F0" text-anchor="middle">Flutter</text>
      <rect x="834"  y="71" width="66"  height="26" rx="6" fill="#334155" fill-opacity="0.45" stroke="#475569" stroke-width="0.7"/><text x="867"  y="88" font-family="'JetBrains Mono',monospace" font-size="11.5" fill="#E2E8F0" text-anchor="middle">Neovim</text>
      <rect x="914"  y="71" width="80"  height="26" rx="6" fill="#334155" fill-opacity="0.45" stroke="#475569" stroke-width="0.7"/><text x="954"  y="88" font-family="'JetBrains Mono',monospace" font-size="11.5" fill="#E2E8F0" text-anchor="middle">IntelliJ</text>
      <rect x="1008" y="71" width="74"  height="26" rx="6" fill="#334155" fill-opacity="0.45" stroke="#475569" stroke-width="0.7"/><text x="1045" y="88" font-family="'JetBrains Mono',monospace" font-size="11.5" fill="#E2E8F0" text-anchor="middle">VS Code</text>
      <rect x="1096" y="71" width="46"  height="26" rx="6" fill="#334155" fill-opacity="0.45" stroke="#475569" stroke-width="0.7"/><text x="1119" y="88" font-family="'JetBrains Mono',monospace" font-size="11.5" fill="#E2E8F0" text-anchor="middle">Nix</text>
      <rect x="1156" y="71" width="130" height="26" rx="6" fill="#334155" fill-opacity="0.45" stroke="#475569" stroke-width="0.7"/><text x="1221" y="88" font-family="'JetBrains Mono',monospace" font-size="11.5" fill="#E2E8F0" text-anchor="middle">Caelestia Shell</text>
      <rect x="1300" y="71" width="122" height="26" rx="6" fill="#334155" fill-opacity="0.45" stroke="#475569" stroke-width="0.7"/><text x="1361" y="88" font-family="'JetBrains Mono',monospace" font-size="11.5" fill="#E2E8F0" text-anchor="middle">Custom scripts</text>
      <rect x="1436" y="71" width="66"  height="26" rx="6" fill="#334155" fill-opacity="0.45" stroke="#475569" stroke-width="0.7"/><text x="1469" y="88" font-family="'JetBrains Mono',monospace" font-size="11.5" fill="#E2E8F0" text-anchor="middle">cli-yt</text>
      <rect x="1516" y="71" width="102" height="26" rx="6" fill="#334155" fill-opacity="0.45" stroke="#475569" stroke-width="0.7"/><text x="1567" y="88" font-family="'JetBrains Mono',monospace" font-size="11.5" fill="#E2E8F0" text-anchor="middle">music fetch</text>
      <rect x="1632" y="71" width="80"  height="26" rx="6" fill="#334155" fill-opacity="0.45" stroke="#475569" stroke-width="0.7"/><text x="1672" y="88" font-family="'JetBrains Mono',monospace" font-size="11.5" fill="#E2E8F0" text-anchor="middle">Hyprland</text>
      <rect x="1726" y="71" width="80"  height="26" rx="6" fill="#334155" fill-opacity="0.45" stroke="#475569" stroke-width="0.7"/><text x="1766" y="88" font-family="'JetBrains Mono',monospace" font-size="11.5" fill="#E2E8F0" text-anchor="middle">Dotfiles</text>
      <rect x="1820" y="71" width="46"  height="26" rx="6" fill="#334155" fill-opacity="0.45" stroke="#475569" stroke-width="0.7"/><text x="1843" y="88" font-family="'JetBrains Mono',monospace" font-size="11.5" fill="#E2E8F0" text-anchor="middle">Git</text>

      <!-- ═══ SET 2 ═══ (each x = original + 1870 for seamless loop) -->
      <rect x="1880" y="71" width="32"  height="26" rx="6" fill="#334155" fill-opacity="0.45" stroke="#475569" stroke-width="0.7"/><text x="1896" y="88" font-family="'JetBrains Mono',monospace" font-size="11.5" fill="#E2E8F0" text-anchor="middle">C</text>
      <rect x="1926" y="71" width="46"  height="26" rx="6" fill="#334155" fill-opacity="0.45" stroke="#475569" stroke-width="0.7"/><text x="1949" y="88" font-family="'JetBrains Mono',monospace" font-size="11.5" fill="#E2E8F0" text-anchor="middle">C++</text>
      <rect x="1986" y="71" width="52"  height="26" rx="6" fill="#334155" fill-opacity="0.45" stroke="#475569" stroke-width="0.7"/><text x="2012" y="88" font-family="'JetBrains Mono',monospace" font-size="11.5" fill="#E2E8F0" text-anchor="middle">Java</text>
      <rect x="2052" y="71" width="52"  height="26" rx="6" fill="#334155" fill-opacity="0.45" stroke="#475569" stroke-width="0.7"/><text x="2078" y="88" font-family="'JetBrains Mono',monospace" font-size="11.5" fill="#E2E8F0" text-anchor="middle">Dart</text>
      <rect x="2118" y="71" width="46"  height="26" rx="6" fill="#334155" fill-opacity="0.45" stroke="#475569" stroke-width="0.7"/><text x="2141" y="88" font-family="'JetBrains Mono',monospace" font-size="11.5" fill="#E2E8F0" text-anchor="middle">Lua</text>
      <rect x="2178" y="71" width="52"  height="26" rx="6" fill="#334155" fill-opacity="0.45" stroke="#475569" stroke-width="0.7"/><text x="2204" y="88" font-family="'JetBrains Mono',monospace" font-size="11.5" fill="#E2E8F0" text-anchor="middle">Bash</text>
      <rect x="2244" y="71" width="102" height="26" rx="6" fill="#334155" fill-opacity="0.45" stroke="#475569" stroke-width="0.7"/><text x="2295" y="88" font-family="'JetBrains Mono',monospace" font-size="11.5" fill="#E2E8F0" text-anchor="middle">Spring Boot</text>
      <rect x="2360" y="71" width="60"  height="26" rx="6" fill="#334155" fill-opacity="0.45" stroke="#475569" stroke-width="0.7"/><text x="2390" y="88" font-family="'JetBrains Mono',monospace" font-size="11.5" fill="#E2E8F0" text-anchor="middle">MySQL</text>
      <rect x="2434" y="71" width="74"  height="26" rx="6" fill="#334155" fill-opacity="0.45" stroke="#475569" stroke-width="0.7"/><text x="2471" y="88" font-family="'JetBrains Mono',monospace" font-size="11.5" fill="#E2E8F0" text-anchor="middle">MongoDB</text>
      <rect x="2522" y="71" width="80"  height="26" rx="6" fill="#334155" fill-opacity="0.45" stroke="#475569" stroke-width="0.7"/><text x="2562" y="88" font-family="'JetBrains Mono',monospace" font-size="11.5" fill="#E2E8F0" text-anchor="middle">Firebase</text>
      <rect x="2616" y="71" width="74"  height="26" rx="6" fill="#334155" fill-opacity="0.45" stroke="#475569" stroke-width="0.7"/><text x="2653" y="88" font-family="'JetBrains Mono',monospace" font-size="11.5" fill="#E2E8F0" text-anchor="middle">Flutter</text>
      <rect x="2704" y="71" width="66"  height="26" rx="6" fill="#334155" fill-opacity="0.45" stroke="#475569" stroke-width="0.7"/><text x="2737" y="88" font-family="'JetBrains Mono',monospace" font-size="11.5" fill="#E2E8F0" text-anchor="middle">Neovim</text>
      <rect x="2784" y="71" width="80"  height="26" rx="6" fill="#334155" fill-opacity="0.45" stroke="#475569" stroke-width="0.7"/><text x="2824" y="88" font-family="'JetBrains Mono',monospace" font-size="11.5" fill="#E2E8F0" text-anchor="middle">IntelliJ</text>
      <rect x="2878" y="71" width="74"  height="26" rx="6" fill="#334155" fill-opacity="0.45" stroke="#475569" stroke-width="0.7"/><text x="2915" y="88" font-family="'JetBrains Mono',monospace" font-size="11.5" fill="#E2E8F0" text-anchor="middle">VS Code</text>
      <rect x="2966" y="71" width="46"  height="26" rx="6" fill="#334155" fill-opacity="0.45" stroke="#475569" stroke-width="0.7"/><text x="2989" y="88" font-family="'JetBrains Mono',monospace" font-size="11.5" fill="#E2E8F0" text-anchor="middle">Nix</text>
      <rect x="3026" y="71" width="130" height="26" rx="6" fill="#334155" fill-opacity="0.45" stroke="#475569" stroke-width="0.7"/><text x="3091" y="88" font-family="'JetBrains Mono',monospace" font-size="11.5" fill="#E2E8F0" text-anchor="middle">Caelestia Shell</text>
      <rect x="3170" y="71" width="122" height="26" rx="6" fill="#334155" fill-opacity="0.45" stroke="#475569" stroke-width="0.7"/><text x="3231" y="88" font-family="'JetBrains Mono',monospace" font-size="11.5" fill="#E2E8F0" text-anchor="middle">Custom scripts</text>
      <rect x="3306" y="71" width="66"  height="26" rx="6" fill="#334155" fill-opacity="0.45" stroke="#475569" stroke-width="0.7"/><text x="3339" y="88" font-family="'JetBrains Mono',monospace" font-size="11.5" fill="#E2E8F0" text-anchor="middle">cli-yt</text>
      <rect x="3386" y="71" width="102" height="26" rx="6" fill="#334155" fill-opacity="0.45" stroke="#475569" stroke-width="0.7"/><text x="3437" y="88" font-family="'JetBrains Mono',monospace" font-size="11.5" fill="#E2E8F0" text-anchor="middle">music fetch</text>
      <rect x="3502" y="71" width="80"  height="26" rx="6" fill="#334155" fill-opacity="0.45" stroke="#475569" stroke-width="0.7"/><text x="3542" y="88" font-family="'JetBrains Mono',monospace" font-size="11.5" fill="#E2E8F0" text-anchor="middle">Hyprland</text>
      <rect x="3596" y="71" width="80"  height="26" rx="6" fill="#334155" fill-opacity="0.45" stroke="#475569" stroke-width="0.7"/><text x="3636" y="88" font-family="'JetBrains Mono',monospace" font-size="11.5" fill="#E2E8F0" text-anchor="middle">Dotfiles</text>
      <rect x="3690" y="71" width="46"  height="26" rx="6" fill="#334155" fill-opacity="0.45" stroke="#475569" stroke-width="0.7"/><text x="3713" y="88" font-family="'JetBrains Mono',monospace" font-size="11.5" fill="#E2E8F0" text-anchor="middle">Git</text>

    </g>
  </g>

  <!-- Edge fades — overlay on top of pills for smooth disappear effect -->
  <rect x="2"   y="57" width="52" height="51" fill="url(#fl)"/>
  <rect x="466" y="57" width="52" height="51" fill="url(#fr)"/>

</svg>
